<?xml version="1.0" encoding="utf-8"?>
<!-- Generator: Adobe Illustrator 23.0.3, SVG Export Plug-In . SVG Version: 6.00 Build 0)  -->
<svg version="1.1" id="Layer_1" xmlns="http://www.w3.org/2000/svg" xmlns:xlink="http://www.w3.org/1999/xlink" x="0px" y="0px"
	 viewBox="0 0 517.8 80" style="enable-background:new 0 0 517.8 80;" xml:space="preserve">
<style type="text/css">
	.st0{fill:#7540EE;}
	.st1{fill:#FFAB00;}
	.st2{fill:#5B7FFF;}
	.st3{fill:#36B37E;}
	.st4{fill:#0A1F44;}
</style>
<g id="Group_31" transform="translate(-11880.91 13929)">
	<g id="Group_1" transform="translate(19.061 0)">
		<path id="Path_1" class="st0" d="M11889-13907.8l-8.1-8.1l7.9-7.9c6.9-6.9,18.2-6.9,25.1,0l7.9,7.9l-8.1,8.1l-7.9-7.9
			c-2.5-2.4-6.4-2.4-8.9,0L11889-13907.8z"/>
	</g>
	<g id="Group_2" transform="translate(58.811 20.084)">
		<path id="Path_2" class="st1" d="M11889-13888.2l-8.1-8.1l7.9-7.9c2.4-2.5,2.4-6.4,0-8.9l-7.9-7.9l8.1-8.1l7.9,7.9
			c6.9,6.9,6.9,18.2,0,25.1L11889-13888.2z"/>
	</g>
	<g id="Group_3" transform="translate(20.083 58.81)">
		<path id="Path_3" class="st2" d="M11888.8-13913l-7.9-7.9l8.1-8.1l7.9,7.9c2.5,2.5,6.4,2.5,8.9,0l7.9-7.9l8.1,8.1l-7.9,7.9
			C11906.9-13906.1,11895.7-13906.1,11888.8-13913z"/>
	</g>
	<g id="Group_4" transform="translate(0 19.062)">
		<path id="Path_4" class="st3" d="M11894-13888.2l-7.9-7.9c-6.9-6.9-6.9-18.2,0-25.1l7.9-7.9l8.1,8.1l-7.9,7.9
			c-2.5,2.5-2.5,6.4,0,8.9l7.9,7.9L11894-13888.2z"/>
	</g>
</g>
<g>
	<path class="st4" d="M105.3,15.2h9v47.9h-9V15.2z M109.5,35h27.9v8.7h-27.9V35z M131.6,15.2h9v47.9h-9V15.2z"/>
	<path class="st4" d="M160.2,63.6c0,0-1.2-0.6-3.5-1.8c-2.3-1.2-4.1-2.9-5.4-5.2c-1.2-2.3-1.8-5.1-1.8-8.3v-3.9
		c0-3.4,0.6-6.3,1.8-8.7c1.2-2.4,2.9-4.2,5.1-5.5c2.3-1.3,5-1.9,8.2-1.9c3,0,5.5,0.7,7.7,2.2c2.1,1.5,3.8,3.7,4.9,6.5
		c1.1,2.8,1.7,6.3,1.7,10.3v2.2h-23.4v-6.1h15.2l-0.1-0.8c-0.2-2-0.9-3.5-1.9-4.6c-1-1.1-2.3-1.6-4-1.6c-2.2,0-3.9,0.6-5.1,1.9
		c-1.2,1.3-1.8,3.1-1.8,5.5v4.3c0,2.3,0.7,4.1,2,5.4c1.3,1.3,3.1,1.9,5.5,1.9c1.2,0,2.4-0.2,3.6-0.6c1.2-0.4,2.3-1,3.2-1.8l5.9,5.2
		c-1.8,1.6-3.8,2.9-6,3.8c-2.2,0.9-4.5,1.3-6.7,1.3C161.8,63.6,160.2,63.6,160.2,63.6z"/>
	<path class="st4" d="M187.7,61c-1.8-1.7-2.7-4.4-2.7-8c0-3.4,1-5.9,3-7.6c2-1.7,5.1-2.5,9.1-2.5h8.6l0.5,6.9h-9
		c-1.4,0-2.4,0.3-3.1,0.8s-1,1.4-1,2.5c0,1.1,0.4,1.9,1.3,2.5s2.2,0.8,3.9,0.8c2.4,0,4.2-0.3,5.4-0.8s1.8-1.4,1.8-2.6l0.7,5
		c-0.1,1.2-0.7,2.3-1.7,3.1c-1,0.9-2.3,1.5-3.8,1.9c-1.5,0.4-3.1,0.6-4.8,0.6C192.3,63.6,189.5,62.7,187.7,61z M205.5,41.4
		c0-1.6-0.5-2.8-1.6-3.7c-1.1-0.9-2.5-1.3-4.5-1.3c-1.3,0-2.5,0.2-3.8,0.6c-1.3,0.4-2.4,1-3.3,1.7l-5.6-5.5c1.4-1.6,3.2-2.8,5.4-3.6
		c2.2-0.9,4.7-1.3,7.4-1.3c3,0,5.5,0.5,7.6,1.5c2.1,1,3.7,2.4,4.8,4.3c1.1,1.9,1.7,4.2,1.7,6.9v22h-8.2V41.4z"/>
	<path class="st4" d="M231.6,51.8c0,0.8,0.2,1.5,0.7,1.9s1.1,0.7,2,0.7h1.5v8.7h-4.6c-2.7,0-4.9-0.8-6.4-2.4s-2.3-3.8-2.3-6.7V15.2
		h9V51.8z"/>
	<path class="st4" d="M239.5,28.9h16.7v7.7h-16.7V28.9z M245.1,61c-1.4-1.5-2.1-3.8-2.1-6.8V18.9h9v33c0,0.8,0.2,1.5,0.5,1.9
		s0.8,0.7,1.4,0.7h2.2v8.7h-4.5C248.7,63.3,246.5,62.5,245.1,61z"/>
	<path class="st4" d="M264.1,15.2h9v47.9h-9V15.2z M283.9,42.4c0-1.7-0.5-3-1.4-3.9c-1-0.9-2.3-1.4-4.1-1.4c-1.7,0-3,0.5-3.9,1.4
		s-1.4,2.2-1.4,3.9l-0.7-7.6c1-2.2,2.3-3.8,3.7-4.8c1.4-1.1,3.2-1.6,5.4-1.6c3.6,0,6.4,1.2,8.4,3.6c2,2.4,3,5.9,3,10.3v20.8h-9V42.4
		z"/>
	<path class="st4" d="M320.6,15.2h9v47.9h-9V15.2z M323.9,15.2H352v8.7h-28.2V15.2z M323.9,35.4h24.5v8.7h-24.5V35.4z"/>
	<path class="st4" d="M363.4,61.8c-2.2-1.2-3.9-2.9-5-5.1s-1.7-4.9-1.7-8.1v-5.6c0-3.1,0.6-5.7,1.7-8s2.8-3.9,5-5
		c2.2-1.2,4.9-1.7,8-1.7s5.8,0.6,8,1.7c2.2,1.2,3.9,2.8,5,5s1.7,4.9,1.7,8v5.7c0,3.1-0.6,5.8-1.7,8c-1.2,2.2-2.8,3.9-5,5.1
		c-2.2,1.2-4.9,1.7-8,1.7S365.6,63,363.4,61.8z M375.6,53.3c1-1.1,1.5-2.6,1.5-4.5v-5.7c0-1.9-0.5-3.4-1.5-4.4
		c-1-1.1-2.4-1.6-4.3-1.6c-1.8,0-3.2,0.5-4.2,1.6c-1,1.1-1.5,2.5-1.5,4.4v5.7c0,1.9,0.5,3.4,1.5,4.5c1,1.1,2.4,1.6,4.2,1.6
		S374.6,54.4,375.6,53.3z"/>
	<path class="st4" d="M394.4,28.9h9.7v34.2h-9.7V28.9z M412,37.4c-0.6-0.2-1.4-0.3-2.2-0.3c-1.8,0-3.2,0.6-4.2,1.8
		c-1,1.2-1.5,2.8-1.5,4.9l-0.7-8.9c0.9-2,2.2-3.6,3.7-4.8c1.5-1.1,3.2-1.7,5-1.7c1.4,0,2.7,0.2,3.9,0.7c1.2,0.5,2.2,1.1,3,2
		l-5.3,7.3C413.2,38,412.7,37.6,412,37.4z"/>
	<path class="st4" d="M455.7,15.2h5.7l18.3,47.9H470l-11.5-32.7l-11.5,32.7h-9.7L455.7,15.2z M446.2,46.7h25.2v8.7h-25.2V46.7z"/>
	<path class="st4" d="M494,51.8c0,0.8,0.2,1.5,0.7,1.9c0.5,0.5,1.1,0.7,2,0.7h1.5v8.7h-4.6c-2.7,0-4.9-0.8-6.4-2.4S485,56.9,485,54
		V15.2h9V51.8z"/>
	<path class="st4" d="M513.6,51.8c0,0.8,0.2,1.5,0.7,1.9c0.5,0.5,1.1,0.7,2,0.7h1.5v8.7h-4.6c-2.7,0-4.9-0.8-6.4-2.4
		s-2.3-3.8-2.3-6.7V15.2h9V51.8z"/>
</g>
</svg>
